<svg width="1600" height="900" viewBox="0 0 1600 900" xmlns="http://www.w3.org/2000/svg">
  <defs>
    <clipPath id="phoneScreen">
      <rect x="1050" y="175" width="320" height="580" rx="32"/>
    </clipPath>
  </defs>

  <rect x="0" y="0" width="1600" height="900" fill="#E8E2DA"/>

  <circle cx="100" cy="120" r="180" fill="#d5cdbc" opacity="0.55"/>
  <circle cx="1520" cy="820" r="200" fill="#d5cdbc" opacity="0.5"/>
  <circle cx="1450" cy="140" r="70" fill="#645d3b" opacity="0.12"/>
  <circle cx="80" cy="790" r="50" fill="#31331f" opacity="0.1"/>

  <g opacity="0.3" stroke="#645d3b" stroke-width="0.8" fill="none">
    <path d="M 60 70 Q 400 40 760 75"/>
    <path d="M 60 85 Q 400 55 760 90"/>
  </g>
  <g opacity="0.3" stroke="#645d3b" stroke-width="0.8" fill="none">
    <path d="M 60 825 Q 400 795 760 830"/>
    <path d="M 60 840 Q 400 810 760 845"/>
  </g>

  <text x="80" y="280" font-size="170" font-weight="500" fill="#31331f" font-style="italic" font-family="Cormorant Garamond, Georgia, serif" letter-spacing="3">RandES</text>
  <line x1="80" y1="320" x2="350" y2="320" stroke="#645d3b" stroke-width="1.5"/>
  <text x="80" y="365" font-size="26" fill="#645d3b" letter-spacing="7" font-family="Georgia, serif">GÜZELLİK SALONU YÖNETİMİ</text>

  <text x="80" y="445" font-size="30" fill="#24221E" font-style="italic" font-family="Cormorant Garamond, Georgia, serif">Randevudan hak edişe, tek panelde.</text>

  <g font-family="Georgia, serif">
    <g transform="translate(80, 510)">
      <circle cx="24" cy="24" r="24" fill="#31331f"/>
      <rect x="14" y="16" width="20" height="18" rx="2" fill="none" stroke="#E8E2DA" stroke-width="1.8"/>
      <line x1="14" y1="22" x2="34" y2="22" stroke="#E8E2DA" stroke-width="1.8"/>
      <line x1="19" y1="12" x2="19" y2="19" stroke="#E8E2DA" stroke-width="1.8"/>
      <line x1="29" y1="12" x2="29" y2="19" stroke="#E8E2DA" stroke-width="1.8"/>
      <text x="64" y="22" font-size="22" font-weight="500" fill="#24221E">Randevu Yönetimi</text>
      <text x="64" y="44" font-size="16" fill="#645d3b">Takvim görünümü ve onay akışı</text>
    </g>

    <g transform="translate(80, 580)">
      <circle cx="24" cy="24" r="24" fill="#645d3b"/>
      <circle cx="24" cy="19" r="5" fill="none" stroke="#E8E2DA" stroke-width="1.8"/>
      <path d="M 12 36 Q 24 26 36 36" fill="none" stroke="#E8E2DA" stroke-width="1.8"/>
      <text x="64" y="22" font-size="22" font-weight="500" fill="#24221E">Personel Takibi</text>
      <text x="64" y="44" font-size="16" fill="#645d3b">Uzmanlık alanları ve prim hesabı</text>
    </g>

    <g transform="translate(80, 650)">
      <circle cx="24" cy="24" r="24" fill="#455763"/>
      <path d="M 24 12 L 30 20 L 38 22 L 32 28 L 34 36 L 24 32 L 14 36 L 16 28 L 10 22 L 18 20 Z" fill="#E8E2DA"/>
      <text x="64" y="22" font-size="22" font-weight="500" fill="#24221E">AI Müşteri Analizi</text>
      <text x="64" y="44" font-size="16" fill="#645d3b">Gemini ile kayıp riski tespiti</text>
    </g>

    <g transform="translate(80, 720)">
      <circle cx="24" cy="24" r="24" fill="#31331f"/>
      <rect x="12" y="14" width="24" height="22" rx="2" fill="none" stroke="#E8E2DA" stroke-width="1.8"/>
      <line x1="18" y1="30" x2="18" y2="26" stroke="#E8E2DA" stroke-width="1.8"/>
      <line x1="24" y1="30" x2="24" y2="22" stroke="#E8E2DA" stroke-width="1.8"/>
      <line x1="30" y1="30" x2="30" y2="18" stroke="#E8E2DA" stroke-width="1.8"/>
      <text x="64" y="22" font-size="22" font-weight="500" fill="#24221E">Hak Ediş Raporu</text>
      <text x="64" y="44" font-size="16" fill="#645d3b">Aylık gelir ve komisyon dökümü</text>
    </g>
  </g>

  <text x="80" y="840" font-size="18" fill="#645d3b" letter-spacing="4" font-family="Georgia, serif">ONEGIRLCODE · CEYDA NUR AKSOY</text>

  <g>
    <rect x="1040" y="165" width="340" height="600" rx="38" fill="#24221E"/>
    <rect x="1046" y="171" width="328" height="588" rx="33" fill="none" stroke="#645d3b" stroke-width="1" opacity="0.6"/>
    <rect x="1175" y="178" width="70" height="16" rx="8" fill="#24221E"/>
    <circle cx="1230" cy="186" r="3" fill="#31331f"/>
  </g>

  <g clip-path="url(#phoneScreen)">
    <rect x="1050" y="175" width="320" height="580" fill="#E8E2DA"/>

    <rect x="1050" y="175" width="320" height="78" fill="#31331f"/>
    <text x="1210" y="215" text-anchor="middle" font-size="28" font-weight="500" fill="#E8E2DA" font-style="italic" font-family="Cormorant Garamond, Georgia, serif">RandES</text>
    <text x="1210" y="238" text-anchor="middle" font-size="11" fill="#d5cdbc" letter-spacing="3" font-family="Georgia, serif">YÖNETİM PANELİ</text>

    <rect x="1068" y="275" width="284" height="80" rx="12" fill="#ffffff" stroke="#d5cdbc" stroke-width="0.8"/>
    <circle cx="1098" cy="315" r="18" fill="#645d3b"/>
    <text x="1098" y="320" text-anchor="middle" font-size="14" font-weight="500" fill="#E8E2DA" font-family="Georgia, serif">AS</text>
    <text x="1128" y="305" font-size="15" font-weight="500" fill="#24221E" font-family="Georgia, serif">Ayşe Selin</text>
    <text x="1128" y="324" font-size="12" fill="#645d3b" font-family="Georgia, serif">Saç Bakımı · 14:00</text>
    <rect x="1128" y="332" width="74" height="16" rx="8" fill="#31331f"/>
    <text x="1165" y="344" text-anchor="middle" font-size="9" fill="#E8E2DA" letter-spacing="1" font-family="Georgia, serif">ONAYLANDI</text>

    <rect x="1068" y="365" width="284" height="80" rx="12" fill="#ffffff" stroke="#d5cdbc" stroke-width="0.8"/>
    <circle cx="1098" cy="405" r="18" fill="#455763"/>
    <text x="1098" y="410" text-anchor="middle" font-size="14" font-weight="500" fill="#E8E2DA" font-family="Georgia, serif">MY</text>
    <text x="1128" y="395" font-size="15" font-weight="500" fill="#24221E" font-family="Georgia, serif">Merve Yılmaz</text>
    <text x="1128" y="414" font-size="12" fill="#645d3b" font-family="Georgia, serif">Kirpik Lifting · 15:30</text>
    <rect x="1128" y="422" width="74" height="16" rx="8" fill="#d5cdbc"/>
    <text x="1165" y="434" text-anchor="middle" font-size="9" fill="#31331f" letter-spacing="1" font-family="Georgia, serif">BEKLEMEDE</text>

    <rect x="1068" y="455" width="284" height="80" rx="12" fill="#ffffff" stroke="#d5cdbc" stroke-width="0.8"/>
    <circle cx="1098" cy="495" r="18" fill="#645d3b"/>
    <text x="1098" y="500" text-anchor="middle" font-size="14" font-weight="500" fill="#E8E2DA" font-family="Georgia, serif">EK</text>
    <text x="1128" y="485" font-size="15" font-weight="500" fill="#24221E" font-family="Georgia, serif">Elif Kaya</text>
    <text x="1128" y="504" font-size="12" fill="#645d3b" font-family="Georgia, serif">Manikür · 16:45</text>
    <rect x="1128" y="512" width="74" height="16" rx="8" fill="#31331f"/>
    <text x="1165" y="524" text-anchor="middle" font-size="9" fill="#E8E2DA" letter-spacing="1" font-family="Georgia, serif">ONAYLANDI</text>

    <rect x="1068" y="555" width="284" height="84" rx="12" fill="#31331f"/>
    <text x="1082" y="578" font-size="11" fill="#d5cdbc" letter-spacing="2" font-family="Georgia, serif">BUGÜN</text>
    <text x="1082" y="614" font-size="32" font-weight="500" fill="#E8E2DA" font-family="Cormorant Garamond, Georgia, serif">12</text>
    <text x="1118" y="614" font-size="13" fill="#d5cdbc" font-family="Georgia, serif">randevu</text>
    <line x1="1210" y1="568" x2="1210" y2="626" stroke="#645d3b" stroke-width="0.8"/>
    <text x="1224" y="578" font-size="11" fill="#d5cdbc" letter-spacing="2" font-family="Georgia, serif">GELİR</text>
    <text x="1224" y="614" font-size="24" font-weight="500" fill="#E8E2DA" font-family="Cormorant Garamond, Georgia, serif">₺3.450</text>

    <rect x="1050" y="665" width="320" height="90" fill="#ffffff"/>
    <line x1="1050" y1="665" x2="1370" y2="665" stroke="#d5cdbc" stroke-width="0.8"/>

    <g transform="translate(1090, 695)">
      <rect x="-14" y="0" width="28" height="28" rx="5" fill="#31331f"/>
      <circle cx="0" cy="14" r="4" fill="#E8E2DA"/>
      <text x="0" y="46" text-anchor="middle" font-size="9" fill="#31331f" font-family="Georgia, serif">Anasayfa</text>
    </g>
    <g transform="translate(1170, 695)">
      <rect x="-14" y="0" width="28" height="28" rx="5" fill="none" stroke="#645d3b" stroke-width="1.4"/>
      <line x1="-8" y1="8" x2="8" y2="8" stroke="#645d3b" stroke-width="1.4"/>
      <line x1="-8" y1="14" x2="8" y2="14" stroke="#645d3b" stroke-width="1.4"/>
      <line x1="-8" y1="20" x2="8" y2="20" stroke="#645d3b" stroke-width="1.4"/>
      <text x="0" y="46" text-anchor="middle" font-size="9" fill="#645d3b" font-family="Georgia, serif">Randevu</text>
    </g>
    <g transform="translate(1250, 695)">
      <circle cx="0" cy="14" r="14" fill="none" stroke="#645d3b" stroke-width="1.4"/>
      <circle cx="0" cy="10" r="4" fill="none" stroke="#645d3b" stroke-width="1.4"/>
      <path d="M -8 20 Q 0 16 8 20" fill="none" stroke="#645d3b" stroke-width="1.4"/>
      <text x="0" y="46" text-anchor="middle" font-size="9" fill="#645d3b" font-family="Georgia, serif">Personel</text>
    </g>
    <g transform="translate(1330, 695)">
      <path d="M -11 6 L 11 6 L 8 22 L -8 22 Z" fill="none" stroke="#645d3b" stroke-width="1.4"/>
      <circle cx="0" cy="6" r="3" fill="none" stroke="#645d3b" stroke-width="1.4"/>
      <text x="0" y="46" text-anchor="middle" font-size="9" fill="#645d3b" font-family="Georgia, serif">AI</text>
    </g>
  </g>
</svg>
